<svg width="32" height="32" viewBox="0 0 32 32" fill="none" xmlns="http://www.w3.org/2000/svg">
<path d="M16 29.3333C8.63954 29.3252 2.67474 23.3604 2.66666 16V15.7333C2.81323 8.40602 8.84611 2.57059 16.1742 2.66782C23.5023 2.76506 29.3783 8.7585 29.3304 16.0871C29.2825 23.4157 23.3287 29.3318 16 29.3333ZM15.9787 26.6667H16C21.8889 26.6608 26.6589 21.8836 26.656 15.9947C26.653 10.1057 21.8783 5.33332 15.9893 5.33332C10.1004 5.33332 5.3256 10.1057 5.32266 15.9947C5.31971 21.8836 10.0897 26.6608 15.9787 26.6667ZM17.3333 24H14.6667V21.3333H17.3333V24ZM17.3333 20H14.6667C14.6245 18.2635 15.5282 16.641 17.0267 15.7627C17.9067 15.088 18.6667 14.5066 18.6667 13.3333C18.6667 11.8606 17.4727 10.6666 16 10.6666C14.5272 10.6666 13.3333 11.8606 13.3333 13.3333H10.6667V13.2133C10.6881 11.3079 11.7244 9.55866 13.3853 8.62451C15.0461 7.69037 17.0792 7.71324 18.7186 8.68451C20.358 9.65579 21.3548 11.4279 21.3333 13.3333C21.2378 14.772 20.4662 16.0803 19.2533 16.86C18.1569 17.5482 17.4463 18.7104 17.3333 20Z" fill="#222222"/>
</svg>
