<svg width="32" height="32" viewBox="0 0 32 32" fill="none" xmlns="http://www.w3.org/2000/svg">
<path d="M18.4267 29.3334H13.5733C12.9468 29.3334 12.4047 28.8974 12.2707 28.2854L11.728 25.7734C11.0041 25.4562 10.3176 25.0595 9.68134 24.5907L7.232 25.3707C6.63467 25.5612 5.98532 25.3098 5.672 24.7667L3.24 20.5654C2.93012 20.022 3.03688 19.3367 3.49734 18.9134L5.39734 17.18C5.31093 16.3948 5.31093 15.6025 5.39734 14.8174L3.49734 13.088C3.0362 12.6645 2.9294 11.9783 3.24 11.4347L5.66667 7.23069C5.97999 6.68762 6.62934 6.4362 7.22667 6.62669L9.676 7.40669C10.0014 7.16556 10.3402 6.94299 10.6907 6.74002C11.0271 6.55028 11.3734 6.37848 11.728 6.22535L12.272 3.71602C12.4054 3.10398 12.9469 2.66735 13.5733 2.66669H18.4267C19.0531 2.66735 19.5946 3.10398 19.728 3.71602L20.2773 6.22669C20.6517 6.39138 21.0163 6.57746 21.3693 6.78402C21.6986 6.97444 22.0169 7.18321 22.3227 7.40935L24.7733 6.62935C25.3703 6.43958 26.0188 6.6909 26.332 7.23335L28.7587 11.4374C29.0686 11.9807 28.9618 12.666 28.5013 13.0894L26.6013 14.8227C26.6877 15.6079 26.6877 16.4002 26.6013 17.1854L28.5013 18.9187C28.9618 19.342 29.0686 20.0274 28.7587 20.5707L26.332 24.7747C26.0188 25.3171 25.3703 25.5685 24.7733 25.3787L22.3227 24.5987C22.0126 24.8271 21.6903 25.0385 21.3573 25.232C21.0078 25.4346 20.6472 25.6175 20.2773 25.78L19.728 28.2854C19.594 28.8969 19.0527 29.3328 18.4267 29.3334ZM10.16 21.6387L11.2533 22.4387C11.4998 22.6202 11.7567 22.7872 12.0227 22.9387C12.2729 23.0836 12.5306 23.2154 12.7947 23.3334L14.0387 23.8787L14.648 26.6667H17.3547L17.964 23.8774L19.208 23.332C19.7511 23.0925 20.2665 22.7948 20.7453 22.444L21.84 21.644L24.5613 22.5107L25.9147 20.1667L23.804 18.2427L23.9533 16.8934C24.0189 16.3032 24.0189 15.7075 23.9533 15.1174L23.804 13.768L25.916 11.84L24.5613 9.49469L21.84 10.3614L20.7453 9.56135C20.2664 9.20897 19.751 8.90903 19.208 8.66669L17.964 8.12135L17.3547 5.33335H14.648L14.036 8.12269L12.7947 8.66669C12.5304 8.78275 12.2727 8.91316 12.0227 9.05735C11.7583 9.20846 11.5028 9.37451 11.2573 9.55469L10.1627 10.3547L7.44267 9.48802L6.08667 11.84L8.19734 13.7614L8.048 15.112C7.98241 15.7022 7.98241 16.2978 8.048 16.888L8.19734 18.2374L6.08667 20.1614L7.44 22.5054L10.16 21.6387ZM15.9947 21.3334C13.0492 21.3334 10.6613 18.9455 10.6613 16C10.6613 13.0545 13.0492 10.6667 15.9947 10.6667C18.9402 10.6667 21.328 13.0545 21.328 16C21.3243 18.944 18.9387 21.3297 15.9947 21.3334ZM15.9947 13.3334C14.5379 13.3348 13.3519 14.5052 13.331 15.9618C13.3101 17.4185 14.4621 18.6223 15.9183 18.6655C17.3744 18.7087 18.5958 17.5754 18.6613 16.12V16.6534V16C18.6613 14.5273 17.4674 13.3334 15.9947 13.3334Z" fill="#222222"/>
</svg>
